inDegrees=yes
name=ik_Xsens_4_quaternion - Copie
DataType=double
version=3
OpenSimVersion=4.4-2022-07-23-0e9fedc
endheader
time	r_shoulder_elev	r_elbow_flex
11.98333333333333	4.222955500217575	3.775616833131811
12	4.221311376739374	3.774746746006454
12.01666666666667	4.213147082432719	3.72890875174304
12.03333333333333	4.173849206069526	3.703988667995172
12.05	4.13068275192282	3.676309897657578
12.06666666666667	4.105286468973525	3.65934209952993
12.08333333333333	4.075668129660701	3.665242447039577
12.1	4.05859426795252	3.655567338712482
12.11666666666667	4.06138714242435	3.639508138764997
12.13333333333333	4.07408821174174	3.609593331780375
12.15	4.09711872857477	3.627250214750931
12.16666666666667	4.08438388611034	3.711620490770407
12.18333333333333	4.073248444095647	3.765580291352686
12.2	4.039090368911944	3.876082274002204
12.21666666666667	4.012398992442473	3.988847044997404
12.23333333333333	3.992709859923183	4.067766165869473
12.25	4.002395657536199	4.114892783353234
12.26666666666667	3.996203311955774	4.146278708836049
12.28333333333333	3.96973055877329	4.217092539702583
12.3	3.961022471009762	4.306929894604779
12.31666666666667	3.969752563422447	4.359983243175912
12.33333333333333	3.96097556934655	4.41746931087908
12.35	3.925981153002005	4.506863418774224
12.36666666666667	3.885492105843046	4.636476912881859
12.38333333333333	3.900064313906713	4.717585044706679
12.4	3.959362199734326	4.755720025648691
12.41666666666667	3.982065027120779	4.790146898021997
12.43333333333333	3.990973154692069	4.815772073854657
12.45	4.015636907605574	4.830217265261112
12.46666666666667	4.063622161044781	4.823125232614218
12.48333333333333	4.104536756753385	4.849737316835303
12.5	4.104364107185194	4.90853556533444
12.51666666666667	4.122620266780558	4.969606777715502
12.53333333333333	4.134808395446651	5.054721402834842
12.55	4.146041249720307	5.18773096446998
12.56666666666667	4.10196917543222	5.357742987905208
12.58333333333333	4.072984742850434	5.480870317945129
12.6	4.044603401206149	5.606200472032776
12.61666666666667	4.027594152971977	5.698281926203927
12.63333333333333	4.02620418853287	5.78781900872211
12.65	4.060948663069283	5.832496958331214
12.66666666666667	4.077749822580557	5.91668014960683
12.68333333333333	4.054883296952201	6.0778209327439
12.7	4.031305083392692	6.240672574120084
12.71666666666667	3.991470145899751	6.483364048961874
12.73333333333333	3.930473913388868	6.787044680091652
12.75	3.864330850624577	7.061670577021864
12.76666666666667	3.821714260674221	7.257572084686227
12.78333333333333	3.789032291488863	7.422991306003431
12.8	3.744674634941019	7.607225537673562
12.81666666666667	3.701364151471319	7.741236314793344
12.83333333333333	3.653910933468426	7.875866356618716
12.85	3.627627001899391	7.987188840273418
12.86666666666667	3.606874349207545	8.095762855370747
12.88333333333333	3.607668270370924	8.156880382823395
12.9	3.629839825990054	8.176109167831767
12.91666666666667	3.658261415517422	8.192755102286238
12.93333333333333	3.686893090668466	8.20829888181775
12.95	3.74843852695891	8.187373751384854
12.96666666666667	3.802607189856427	8.138575704195421
12.98333333333333	3.833805130168574	8.088651022889692
13	3.821017165230748	8.104308220936202
13.01666666666667	3.768600798342748	8.16050814711372
13.03333333333333	3.703366913694468	8.238438902669037
13.05	3.608909372493665	8.388159711361595
13.06666666666667	3.507121248793302	8.61963827795457
13.08333333333333	3.450279674253595	8.810283146723737
13.1	3.477141135566452	8.893637567322108
13.11666666666667	3.496863274113418	8.969739994010508
13.13333333333333	3.527028594025862	9.039263646226232
13.15	3.57164032698854	9.06706538531729
13.16666666666667	3.608790043465466	9.035634105998819
13.18333333333333	3.644403167017744	9.018710368300422
13.2	3.652275932410204	9.001105982005781
13.21666666666667	3.666726802890871	8.985990440393145
13.23333333333333	3.678138406812353	8.96894746021168
13.25	3.690373266451295	8.978777187738537
13.26666666666667	3.716341804053768	8.99421665421465
13.28333333333333	3.749537095851436	8.969717255067657
13.3	3.751781108435668	8.973362429235795
13.31666666666667	3.722166411901269	9.01463959425757
13.33333333333333	3.711690884880736	9.010278411048807
13.35	3.711490879499022	9.00176774405096
13.36666666666667	3.711601796221169	8.993623707379214
13.38333333333333	3.705670041363177	8.989884953083113
13.4	3.694904840618011	8.980712478806451
13.41666666666667	3.689328041278829	8.975071052495624
13.43333333333333	3.66320301440863	8.984629325052007
13.45	3.635197321779928	9.006422582261607
13.46666666666667	3.617600515580738	9.044799967339639
13.48333333333333	3.605294958990461	9.090092170093939
13.5	3.631671401692172	9.105891149814608
13.51666666666667	3.641414246698897	9.146118964859038
13.53333333333333	3.636838229282118	9.196903954037479
13.55	3.626826280868529	9.218778211387134
13.56666666666667	3.577836635623109	9.258176748511504
13.58333333333333	3.539876151141443	9.271232148603527
13.6	3.522068618131826	9.259595824951836
13.61666666666667	3.507190759270672	9.246547425037013
13.63333333333333	3.507190759270672	9.246547425037013
13.65	3.49373436769463	9.274150358337522
13.66666666666667	3.471985112200134	9.315794970937525
13.68333333333333	3.448136490586312	9.377446565892285
13.7	3.409313636548696	9.461861476088258
13.71666666666667	3.345938824298628	9.56312512394928
13.73333333333333	3.276713764133842	9.660045602015721
13.75	3.233816045719426	9.761957906111952
13.76666666666667	3.208126005043211	9.828103119021797
13.78333333333333	3.188175165729008	9.871698040527786
13.8	3.157707639092781	9.888813298362345
13.81666666666667	3.132497342579197	9.90336771186872
13.83333333333333	3.132497342579197	9.90336771186872
13.85	3.140283642938059	9.90997130166668
13.86666666666667	3.140283642938059	9.90997130166668
13.88333333333333	3.15672315570743	9.87579755004862
13.9	3.157662126524056	9.866927599539931
13.91666666666667	3.150272596891614	9.85990457297922
13.93333333333333	3.150272596891614	9.85990457297922
13.95	3.194457068444474	9.817107698440601
13.96666666666667	3.242009700517026	9.76658481514796
13.98333333333333	3.28027247537018	9.712561290072111
14	3.297919611777059	9.669833377043043
14.01666666666667	3.327287361217988	9.61947750672922
14.03333333333333	3.340328067106022	9.607210635082954
14.05	3.328944278245187	9.60146021445159
14.06666666666667	3.304314872108228	9.619040972235164
14.08333333333333	3.304314872108228	9.619040972235164
14.1	3.284483841073867	9.658266090446274
14.11666666666667	3.303163567049832	9.672240329615459
14.13333333333333	3.339468872864178	9.69072800090605
14.15	3.383297830587904	9.708179871085889
14.16666666666667	3.406771615376608	9.720613121947578
14.18333333333333	3.436572078083419	9.734971057354278
14.2	3.505280523276723	9.703998667194531
14.21666666666667	3.559528554885387	9.732374526898594
14.23333333333333	3.605907427782945	9.751358106219895
14.25	3.654191294371205	9.736281517404974
14.26666666666667	3.704171153199669	9.715922445061006
14.28333333333333	3.721346388518169	9.725412556653898
14.3	3.739109881971828	9.746324113140609
14.31666666666667	3.730129963916298	9.82188487602552
14.33333333333333	3.762373086730892	9.837976184107033
14.35	3.813110967561824	9.822937451210716
14.36666666666667	3.866163643072595	9.801722942317745
14.38333333333333	3.948407841622163	9.750652411552505
14.4	4.032365056733234	9.693498716761537
14.41666666666667	4.096517166431389	9.649305409223169
14.43333333333333	4.113006300990703	9.657660253176029
14.45	4.165633262054601	9.624044590468664
14.46666666666667	4.295308049026748	9.524582923852112
14.48333333333333	4.395657382328604	9.452346351174089
14.5	4.448733952402029	9.430182593236221
14.51666666666667	4.429390630527533	9.469173847323392
14.53333333333333	4.479021780506954	9.441948262546427
14.55	4.581229593088536	9.349778542436956
14.56666666666667	4.706346400540545	9.235864322308485
14.58333333333333	4.85760620139838	9.100943229750138
14.6	4.978403211522021	8.961133989698927
14.61666666666667	5.110384137699873	8.80475436923617
14.63333333333333	5.298881753907553	8.60902849156029
14.65	5.490870039976264	8.444795069754544
14.66666666666667	5.600565751903522	8.408235166580647
14.68333333333333	5.660295102120244	8.402498458970813
14.7	5.678388298504794	8.411720705974448
14.71666666666667	5.704463621936786	8.41780120427225
14.73333333333333	5.811529233303349	8.327844330964441
14.75	5.952170426130066	8.224660686480481
14.76666666666667	6.010590415354565	8.215459396248949
14.78333333333333	5.990825338157977	8.295153275480347
14.8	5.954234411089995	8.376663410321141
14.81666666666667	5.964129046435636	8.386035150536308
14.83333333333333	5.972582767053796	8.395939574397644
14.85	5.965125299719492	8.44713199654668
14.86666666666667	5.972047393041664	8.464163779411034
14.88333333333333	5.940716144782494	8.518601772618151
14.9	5.890198398916838	8.582327022151713
14.91666666666667	5.855414229634073	8.621071565622559
14.93333333333333	5.860580750939526	8.626686388519463
14.95	5.806444837001009	8.701697856493444
14.96666666666667	5.727167017339866	8.802085361940222
14.98333333333333	5.67011780111357	8.873527931279337
15	5.637718615491074	8.925411025277711
15.01666666666667	5.615833598431188	8.982763642402114
15.03333333333333	5.615833598431188	8.982763642402114
15.05	5.615833598431188	8.982763642402114
15.06666666666667	5.636830158519711	8.955272420839142
15.08333333333333	5.663893487149471	8.912982945635417
15.1	5.682142007710731	8.87078358282448
15.11666666666667	5.664636036522757	8.860963910090161
15.13333333333333	5.648020865311349	8.851786226434042
15.15	5.642604943926929	8.845856494671933
15.16666666666667	5.632722818191739	8.827883365400828
15.18333333333333	5.620661182510408	8.808909297817886
15.2	5.607586356232354	8.797794427731954
15.21666666666667	5.59464577020861	8.788636834236502
15.23333333333333	5.584918364481259	8.736366510456431
15.25	5.577946737155783	8.621218213977189
15.26666666666667	5.59997844743059	8.448448001486325
15.28333333333333	5.613964908307071	8.305059746826345
15.3	5.623653854385355	8.18071270116169
15.31666666666667	5.646121744751706	8.055102665212175
15.33333333333333	5.691924691710853	7.934835721112043
15.35	5.739222672754578	7.844031659474499
15.36666666666667	5.794115236031107	7.757995649346788
15.38333333333333	5.857934473231134	7.661736899689135
15.4	5.921212281668996	7.562829361449326
15.41666666666667	5.981907018570922	7.466407904962555
15.43333333333333	6.023645134307113	7.361646576579615
15.45	6.056454930922119	7.26003604608002
15.46666666666667	6.10053746508575	7.167146532652019
15.48333333333333	6.155646964621729	7.06973865512119
15.5	6.212928841610364	6.956198286262984
15.51666666666667	6.268169586677508	6.827877150508584
15.53333333333333	6.34227674323668	6.694377776643969
15.55	6.419808372228613	6.583378404966566
15.56666666666667	6.501661748492711	6.518764296580159
15.58333333333333	6.577306205609683	6.481829961797577
15.6	6.620295501712345	6.509450542191772
15.61666666666667	6.618245132241274	6.605243752234633
15.63333333333333	6.617632560324791	6.676005475106315
15.65	6.626755719213866	6.735296536696819
15.66666666666667	6.601481213598062	6.799953988643806
